<svg xmlns="http://www.w3.org/2000/svg" version="1.1" xmlns:xlink="http://www.w3.org/1999/xlink" width="1000" height="1000"><g clip-path="url(#SvgjsClipPath1228)"><rect width="1000" height="1000" fill="#fff7ed"></rect><g transform="matrix(25,0,0,25,100,100)"><svg xmlns="http://www.w3.org/2000/svg" version="1.1" xmlns:xlink="http://www.w3.org/1999/xlink" width="32" height="32"><svg xmlns:xlink="http://www.w3.org/1999/xlink" xmlns="http://www.w3.org/2000/svg" xml:space="preserve" fill-rule="evenodd" stroke-linecap="round" stroke-linejoin="round" stroke-miterlimit="1.5" clip-rule="evenodd" viewBox="0 0 24 24" class="h-8 w-8" width="32" height="32"><path fill="none" d="M0 0h24v24H0z"></path><path fill="none" stroke="#252726" d="M12 12.811C14.932 10.38 17.098 7.612 17 5c-.096-2.573-1.499-2.969-2.245-2.785-.746.183-1.447.951-1.431 2.785.016 1.804.63 5.198 1.409 7.5.772 2.286 1.74 3.598 2.077 5.76.27 1.732-.665 2.961-1.81 2.879-1.307-.093-1.888-1.44-2-2.814-.105-1.292.222-4.225 5.62-7.034" style="stroke-dasharray: 48.0796, 48.0796;"></path><path fill="none" stroke="#252726" d="M12 12.811c-2.808 2.33-5.43 3.494-5.5 5.992-.06 2.138 1.179 3.004 2.26 2.979 1.281-.031 2.216-1.277 2.04-3.282-.166-1.899-1.072-3.997-1.522-5-.474-1.056-2.328-3.967-2.581-7C6.474 3.833 7.897 2.702 9 2.743c1.106.04 2.515 1.261 2.266 4.257-.328 3.942-3.668 6.132-5.906 6.223" style="stroke-dasharray: 49.3765, 49.3765;"></path></svg></svg></g></g><defs><clipPath id="SvgjsClipPath1228"><rect width="1000" height="1000" x="0" y="0" rx="500" ry="500"></rect></clipPath></defs></svg>